<?xml version="1.0" encoding="utf-8"?>
<!-- Generator: Adobe Illustrator 21.1.0, SVG Export Plug-In . SVG Version: 6.00 Build 0)  -->
<svg version="1.1" id="Calque_1" xmlns="http://www.w3.org/2000/svg" xmlns:xlink="http://www.w3.org/1999/xlink" x="0px" y="0px"
	 viewBox="0 0 100 125" style="enable-background:new 0 0 100 125;" xml:space="preserve">
<style type="text/css">
	.st0{display:none;}
	.st1{display:inline;}
	.st2{fill:#1F00FF;}
</style>
<g class="st0">
	<g class="st1">
		<rect x="-230" y="-5.5" width="1180" height="835.6"/>
		<path d="M950.5,830.6h-1181V-6.1h1181V830.6z M-229.5,829.5h1179V-5h-1179V829.5z"/>
	</g>
</g>
<g>
	<g>
		<g>
			<path class="st2" d="M84.6,15.4c-1.7-1.7-4.1-2.7-6.5-2.7c-2.5,0-4.8,1-6.5,2.7c-0.1,0.1-6.8,6.8-9.3,9.2L62,24.4
				c-1.2-1.2-3.2-1.2-4.5,0l-3.7,3.7c-0.6,0.6-0.9,1.4-0.9,2.2c0,0.8,0.3,1.6,0.9,2.2l1.5,1.4L38.9,50.2c-3.7,3.7-4.3,5.4-4.7,7.4
				c-0.3,1.4-0.5,2.6-3.9,6c-0.3,0.3-0.4,0.6-0.4,1c0,0.4,0.1,0.7,0.4,1l3.7,3.7c0.3,0.3,0.6,0.4,1,0.4s0.7-0.1,1-0.4
				c3.4-3.4,4.7-3.6,6-3.9c2-0.4,3.8-1,7.5-4.7l16.4-16.2l1.5,1.4c1.2,1.2,3.3,1.2,4.5,0l3.7-3.7c1.2-1.2,1.2-3.2,0-4.4c0,0,0,0,0,0
				l-0.2-0.2l9.3-9.2C88.2,24.8,88.2,19,84.6,15.4z M47.5,58.7c-3.4,3.4-4.7,3.6-6,3.9C39.6,63,38,63.5,35,66.3l-1.7-1.7
				c2.8-3,3.3-4.6,3.7-6.4c0.3-1.4,0.5-2.6,3.9-6L57.3,36l6.6,6.6L47.5,58.7z M73.5,40.3L69.8,44c-0.2,0.2-0.3,0.2-0.5,0L55.8,30.5
				c-0.1-0.1-0.1-0.2-0.1-0.2s0-0.1,0.1-0.2l3.7-3.7c0.1-0.1,0.1-0.1,0.2-0.1s0.2,0,0.2,0.1l13.5,13.4C73.6,40,73.6,40.2,73.5,40.3z
				 M82.6,26.4l-9.3,9.2l-9.1-9c2.4-2.4,9.1-9.1,9.3-9.2c1.2-1.2,2.8-1.9,4.5-1.9c1.7,0,3.3,0.7,4.5,1.9C85,19.9,85,24,82.6,26.4z"
				/>
		</g>
	</g>
	<g>
		<path class="st2" d="M22.6,40v6.9h3.2V40c-0.5,0.2-1,0.3-1.6,0.3S23,40.2,22.6,40z"/>
	</g>
	<path class="st2" d="M25.7,31v-6.9h-3.2V31c0.5-0.2,1-0.3,1.6-0.3S25.2,30.9,25.7,31z"/>
	<g>
		<path class="st2" d="M28.6,33.9c0.2,0.5,0.3,1,0.3,1.6s-0.1,1.1-0.3,1.6h6.9v-3.2H28.6z"/>
	</g>
	<g>
		<path class="st2" d="M19.7,33.9h-6.9v3.2h6.9c-0.2-0.5-0.3-1-0.3-1.6C19.4,35,19.5,34.4,19.7,33.9z"/>
	</g>
	<path class="st2" d="M64,80.3v6.9h3.2v-6.9c-0.5,0.2-1,0.3-1.6,0.3C65,80.6,64.5,80.5,64,80.3z"/>
	<path class="st2" d="M67.1,71.4v-6.9H64v6.9c0.5-0.2,1-0.3,1.6-0.3S66.7,71.2,67.1,71.4z"/>
	<path class="st2" d="M70,74.3c0.2,0.5,0.3,1,0.3,1.6s-0.1,1.1-0.3,1.6H77v-3.2H70z"/>
	<path class="st2" d="M61.1,74.3h-6.9v3.2h6.9c-0.2-0.5-0.3-1-0.3-1.6S60.9,74.8,61.1,74.3z"/>
</g>
</svg>
