<?xml version="1.0" encoding="utf-8"?>
<!-- Generator: Adobe Illustrator 21.1.0, SVG Export Plug-In . SVG Version: 6.00 Build 0)  -->
<svg version="1.1" id="Calque_1" xmlns="http://www.w3.org/2000/svg" xmlns:xlink="http://www.w3.org/1999/xlink" x="0px" y="0px"
	 viewBox="0 0 100 125" style="enable-background:new 0 0 100 125;" xml:space="preserve">
<style type="text/css">
	.st0{fill:#1F00FF;}
</style>
<path class="st0" d="M73.9,7.8V3.1l-42.8,9C18.6,11,19.4,22,19.4,22v44.8c0.1,11.5,11.7,10.4,11.7,10.4l4,0.9v19.5l5.6-6.8l5.5,6.9
	v-17l27.8,6.3v-5.6h7.8V7.8H73.9z M44.8,93.6l-4.2-5.5l-4.2,5.5V78.4l8.4,1.9V93.6z M72.5,84.8l-40.6-9.2c0,0-10.8,1.5-10.8-10V23.1
	c0,0-0.7-11.3,10.8-9.4l40.6-8.5V84.8z M80.4,80h-6.5v-2.1h3.5V11.2h-3.5V9.2h6.5V80z"/>
<path class="st0" d="M30.5,17.1c0-0.3-0.2-0.5-0.5-0.5s-0.5,0.2-0.5,0.5h0v56.1h0c0,0.3,0.2,0.5,0.5,0.5s0.5-0.2,0.5-0.5h0
	L30.5,17.1L30.5,17.1z"/>
</svg>
